<svg width="60" height="60" viewBox="0 0 60 60" fill="none" xmlns="http://www.w3.org/2000/svg">
<g filter="url(#filter0_i_11101_1825)">
<g clip-path="url(#paint0_diamond_11101_1825_clip_path)" data-figma-skip-parse="true"><g transform="matrix(0 0.0249999 -0.021985 0 30.0001 30.0001)"><rect x="0" y="0" width="1040" height="1045.49" fill="url(#paint0_diamond_11101_1825)" opacity="1" shape-rendering="crispEdges"/><rect x="0" y="0" width="1040" height="1045.49" transform="scale(1 -1)" fill="url(#paint0_diamond_11101_1825)" opacity="1" shape-rendering="crispEdges"/><rect x="0" y="0" width="1040" height="1045.49" transform="scale(-1 1)" fill="url(#paint0_diamond_11101_1825)" opacity="1" shape-rendering="crispEdges"/><rect x="0" y="0" width="1040" height="1045.49" transform="scale(-1)" fill="url(#paint0_diamond_11101_1825)" opacity="1" shape-rendering="crispEdges"/></g></g><path fill-rule="evenodd" clip-rule="evenodd" d="M28.7501 5.33506C29.1302 5.11564 29.5613 5.00012 30.0001 5.00012C30.439 5.00012 30.8701 5.11564 31.2501 5.33506L36.2501 8.22256C36.8197 8.55643 37.234 9.10202 37.4027 9.74026C37.5715 10.3785 37.4809 11.0576 37.1508 11.6293C36.8207 12.201 36.2779 12.619 35.6408 12.7919C35.0037 12.9649 34.324 12.8788 33.7501 12.5526L32.5001 11.8301V15.0001C32.5001 15.6631 32.2367 16.299 31.7679 16.7678C31.2991 17.2367 30.6632 17.5001 30.0001 17.5001C29.3371 17.5001 28.7012 17.2367 28.2324 16.7678C27.7635 16.299 27.5001 15.6631 27.5001 15.0001V11.8301L26.2501 12.5526C25.6762 12.8788 24.9966 12.9649 24.3595 12.7919C23.7224 12.619 23.1795 12.201 22.8495 11.6293C22.5194 11.0576 22.4288 10.3785 22.5975 9.74026C22.7663 9.10202 23.1806 8.55643 23.7501 8.22256L28.7501 5.33506ZM17.6801 14.6126C18.0116 15.1868 18.1015 15.8691 17.9299 16.5096C17.7583 17.15 17.3393 17.696 16.7651 18.0276L15.5151 18.7501L18.2601 20.3351C18.5467 20.498 18.7983 20.7161 19.0003 20.9766C19.2023 21.2372 19.3508 21.5351 19.4372 21.8533C19.5235 22.1715 19.5461 22.5036 19.5036 22.8306C19.4611 23.1575 19.3544 23.4728 19.1895 23.7584C19.0247 24.0439 18.805 24.294 18.5431 24.4943C18.2812 24.6945 17.9823 24.841 17.6635 24.9253C17.3448 25.0096 17.0125 25.03 16.6858 24.9853C16.3592 24.9406 16.0446 24.8318 15.7601 24.6651L13.0151 23.0801V24.5226C13.0151 25.1856 12.7517 25.8215 12.2829 26.2903C11.8141 26.7592 11.1782 27.0226 10.5151 27.0226C9.85209 27.0226 9.21621 26.7592 8.74737 26.2903C8.27853 25.8215 8.01514 25.1856 8.01514 24.5226V18.7501C8.01559 18.3117 8.13131 17.8811 8.35071 17.5015C8.57011 17.122 8.88546 16.8068 9.26514 16.5876L14.2651 13.7001C14.8393 13.3686 15.5217 13.2787 16.1621 13.4503C16.8026 13.6219 17.3486 14.0409 17.6801 14.6151V14.6126ZM42.3201 14.6126C42.6517 14.0384 43.1977 13.6194 43.8381 13.4478C44.4786 13.2762 45.1609 13.3661 45.7351 13.6976L50.7351 16.5851C51.1152 16.8045 51.4308 17.1201 51.6502 17.5001C51.8696 17.8801 51.9851 18.3112 51.9851 18.7501V24.5251C51.9851 25.1881 51.7217 25.824 51.2529 26.2928C50.7841 26.7617 50.1482 27.0251 49.4851 27.0251C48.8221 27.0251 48.1862 26.7617 47.7174 26.2928C47.2485 25.824 46.9851 25.1881 46.9851 24.5251V23.0801L44.2401 24.6651C43.6662 24.9914 42.9866 25.0774 42.3495 24.9044C41.7124 24.7315 41.1695 24.3135 40.8395 23.7418C40.5094 23.1701 40.4188 22.491 40.5875 21.8528C40.7563 21.2145 41.1706 20.6689 41.7401 20.3351L44.4851 18.7501L43.2351 18.0276C42.661 17.696 42.242 17.15 42.0704 16.5096C41.8988 15.8691 41.9886 15.1868 42.3201 14.6126ZM21.3401 25.0001C21.6717 24.4259 22.2177 24.0069 22.8581 23.8353C23.4986 23.6637 24.1809 23.7536 24.7551 24.0851L30.0001 27.1126L35.2451 24.0851C35.819 23.7588 36.4987 23.6727 37.1358 23.8457C37.7729 24.0187 38.3157 24.4366 38.6458 25.0083C38.9759 25.58 39.0665 26.2591 38.8977 26.8974C38.729 27.5356 38.3147 28.0812 37.7451 28.4151L32.5001 31.4426V37.5001C32.5001 38.1631 32.2367 38.799 31.7679 39.2678C31.2991 39.7367 30.6632 40.0001 30.0001 40.0001C29.3371 40.0001 28.7012 39.7367 28.2324 39.2678C27.7635 38.799 27.5001 38.1631 27.5001 37.5001V31.4426L22.2551 28.4151C21.681 28.0835 21.262 27.5375 21.0904 26.8971C20.9188 26.2566 21.0086 25.5743 21.3401 25.0001ZM10.5151 32.9751C11.1782 32.9751 11.8141 33.2384 12.2829 33.7073C12.7517 34.1761 13.0151 34.812 13.0151 35.4751V36.9201L15.7601 35.3351C16.334 35.0088 17.0137 34.9227 17.6508 35.0957C18.2879 35.2687 18.8307 35.6866 19.1608 36.2583C19.4909 36.83 19.5815 37.5091 19.4127 38.1474C19.244 38.7856 18.8297 39.3312 18.2601 39.6651L15.5151 41.2501L16.7651 41.9726C17.0518 42.1355 17.3033 42.3536 17.5053 42.6141C17.7073 42.8747 17.8558 43.1726 17.9422 43.4908C18.0285 43.809 18.0511 44.1411 18.0086 44.4681C17.9661 44.795 17.8594 45.1104 17.6945 45.3959C17.5297 45.6814 17.31 45.9315 17.0481 46.1318C16.7862 46.332 16.4873 46.4785 16.1685 46.5628C15.8498 46.6471 15.5175 46.6675 15.1908 46.6228C14.8642 46.5781 14.5496 46.4693 14.2651 46.3026L9.26514 43.4151C8.8851 43.1956 8.56951 42.8801 8.35009 42.5C8.13067 42.12 8.01515 41.6889 8.01514 41.2501V35.4751C8.01514 34.812 8.27853 34.1761 8.74737 33.7073C9.21621 33.2384 9.85209 32.9751 10.5151 32.9751ZM49.4851 32.9751C50.1482 32.9751 50.7841 33.2384 51.2529 33.7073C51.7217 34.1761 51.9851 34.812 51.9851 35.4751V41.2501C51.9851 41.6889 51.8696 42.12 51.6502 42.5C51.4308 42.8801 51.1152 43.1956 50.7351 43.4151L45.7351 46.3026C45.4507 46.4693 45.1361 46.5781 44.8094 46.6228C44.4828 46.6675 44.1505 46.6471 43.8318 46.5628C43.513 46.4785 43.2141 46.332 42.9522 46.1318C42.6903 45.9315 42.4706 45.6814 42.3057 45.3959C42.1409 45.1104 42.0341 44.795 41.9916 44.4681C41.9491 44.1411 41.9717 43.809 42.0581 43.4908C42.1445 43.1726 42.293 42.8747 42.495 42.6141C42.697 42.3536 42.9485 42.1355 43.2351 41.9726L44.4851 41.2501L41.7401 39.6651C41.4535 39.5021 41.202 39.2841 41 39.0235C40.798 38.7629 40.6495 38.465 40.5631 38.1468C40.4767 37.8286 40.4541 37.4965 40.4966 37.1695C40.5391 36.8426 40.6459 36.5273 40.8107 36.2417C40.9756 35.9562 41.1953 35.7061 41.4572 35.5058C41.7191 35.3056 42.018 35.1591 42.3368 35.0748C42.6555 34.9905 42.9878 34.9701 43.3144 35.0148C43.6411 35.0595 43.9557 35.1683 44.2401 35.3351L46.9851 36.9201V35.4776C46.9851 34.8145 47.2485 34.1786 47.7174 33.7098C48.1862 33.2409 48.8221 32.9776 49.4851 32.9776V32.9751ZM30.0001 42.5001C30.6632 42.5001 31.2991 42.7634 31.7679 43.2323C32.2367 43.7011 32.5001 44.337 32.5001 45.0001V48.1701L33.7501 47.4476C34.0346 47.2808 34.3492 47.172 34.6758 47.1273C35.0025 47.0827 35.3348 47.103 35.6535 47.1873C35.9722 47.2716 36.2712 47.4181 36.5331 47.6183C36.795 47.8186 37.0147 48.0687 37.1795 48.3542C37.3444 48.6398 37.4511 48.9551 37.4936 49.282C37.5361 49.609 37.5135 49.9411 37.4272 50.2593C37.3408 50.5775 37.1923 50.8754 36.9903 51.136C36.7883 51.3966 36.5367 51.6146 36.2501 51.7776L31.2501 54.6651C30.8701 54.8845 30.439 55 30.0001 55C29.5613 55 29.1302 54.8845 28.7501 54.6651L23.7501 51.7776C23.4635 51.6146 23.212 51.3966 23.01 51.136C22.808 50.8754 22.6595 50.5775 22.5731 50.2593C22.4867 49.9411 22.4641 49.609 22.5066 49.282C22.5491 48.9551 22.6559 48.6398 22.8207 48.3542C22.9856 48.0687 23.2053 47.8186 23.4672 47.6183C23.7291 47.4181 24.028 47.2716 24.3468 47.1873C24.6655 47.103 24.9978 47.0827 25.3244 47.1273C25.6511 47.172 25.9657 47.2808 26.2501 47.4476L27.5001 48.1701V45.0001C27.5001 44.337 27.7635 43.7011 28.2324 43.2323C28.7012 42.7634 29.3371 42.5001 30.0001 42.5001Z" data-figma-gradient-fill="{&#34;type&#34;:&#34;GRADIENT_DIAMOND&#34;,&#34;stops&#34;:[{&#34;color&#34;:{&#34;r&#34;:0.96470588445663452,&#34;g&#34;:0.96470588445663452,&#34;b&#34;:0.96470588445663452,&#34;a&#34;:1.0},&#34;position&#34;:0.57999998331069946},{&#34;color&#34;:{&#34;r&#34;:0.25098040699958801,&#34;g&#34;:0.62352943420410156,&#34;b&#34;:0.83529412746429443,&#34;a&#34;:1.0},&#34;position&#34;:1.0}],&#34;stopsVar&#34;:[{&#34;color&#34;:{&#34;r&#34;:0.96470588445663452,&#34;g&#34;:0.96470588445663452,&#34;b&#34;:0.96470588445663452,&#34;a&#34;:1.0},&#34;position&#34;:0.57999998331069946},{&#34;color&#34;:{&#34;r&#34;:0.25098040699958801,&#34;g&#34;:0.62352943420410156,&#34;b&#34;:0.83529412746429443,&#34;a&#34;:1.0},&#34;position&#34;:1.0}],&#34;transform&#34;:{&#34;m00&#34;:2.6923861259225707e-15,&#34;m01&#34;:-43.970001220703125,&#34;m02&#34;:51.985137939453125,&#34;m10&#34;:49.99987792968750,&#34;m11&#34;:3.0616096934548516e-15,&#34;m12&#34;:5.00012207031250},&#34;opacity&#34;:1.0,&#34;blendMode&#34;:&#34;NORMAL&#34;,&#34;visible&#34;:true}"/>
</g>
<defs>
<filter id="filter0_i_11101_1825" x="7.01514" y="5.00012" width="44.97" height="50.9999" filterUnits="userSpaceOnUse" color-interpolation-filters="sRGB">
<feFlood flood-opacity="0" result="BackgroundImageFix"/>
<feBlend mode="normal" in="SourceGraphic" in2="BackgroundImageFix" result="shape"/>
<feColorMatrix in="SourceAlpha" type="matrix" values="0 0 0 0 0 0 0 0 0 0 0 0 0 0 0 0 0 0 127 0" result="hardAlpha"/>
<feOffset dx="-1" dy="1"/>
<feGaussianBlur stdDeviation="0.5"/>
<feComposite in2="hardAlpha" operator="arithmetic" k2="-1" k3="1"/>
<feColorMatrix type="matrix" values="0 0 0 0 0 0 0 0 0 0 0 0 0 0 0 0 0 0 0.25 0"/>
<feBlend mode="multiply" in2="shape" result="effect1_innerShadow_11101_1825"/>
</filter>
<clipPath id="paint0_diamond_11101_1825_clip_path"><path fill-rule="evenodd" clip-rule="evenodd" d="M28.7501 5.33506C29.1302 5.11564 29.5613 5.00012 30.0001 5.00012C30.439 5.00012 30.8701 5.11564 31.2501 5.33506L36.2501 8.22256C36.8197 8.55643 37.234 9.10202 37.4027 9.74026C37.5715 10.3785 37.4809 11.0576 37.1508 11.6293C36.8207 12.201 36.2779 12.619 35.6408 12.7919C35.0037 12.9649 34.324 12.8788 33.7501 12.5526L32.5001 11.8301V15.0001C32.5001 15.6631 32.2367 16.299 31.7679 16.7678C31.2991 17.2367 30.6632 17.5001 30.0001 17.5001C29.3371 17.5001 28.7012 17.2367 28.2324 16.7678C27.7635 16.299 27.5001 15.6631 27.5001 15.0001V11.8301L26.2501 12.5526C25.6762 12.8788 24.9966 12.9649 24.3595 12.7919C23.7224 12.619 23.1795 12.201 22.8495 11.6293C22.5194 11.0576 22.4288 10.3785 22.5975 9.74026C22.7663 9.10202 23.1806 8.55643 23.7501 8.22256L28.7501 5.33506ZM17.6801 14.6126C18.0116 15.1868 18.1015 15.8691 17.9299 16.5096C17.7583 17.15 17.3393 17.696 16.7651 18.0276L15.5151 18.7501L18.2601 20.3351C18.5467 20.498 18.7983 20.7161 19.0003 20.9766C19.2023 21.2372 19.3508 21.5351 19.4372 21.8533C19.5235 22.1715 19.5461 22.5036 19.5036 22.8306C19.4611 23.1575 19.3544 23.4728 19.1895 23.7584C19.0247 24.0439 18.805 24.294 18.5431 24.4943C18.2812 24.6945 17.9823 24.841 17.6635 24.9253C17.3448 25.0096 17.0125 25.03 16.6858 24.9853C16.3592 24.9406 16.0446 24.8318 15.7601 24.6651L13.0151 23.0801V24.5226C13.0151 25.1856 12.7517 25.8215 12.2829 26.2903C11.8141 26.7592 11.1782 27.0226 10.5151 27.0226C9.85209 27.0226 9.21621 26.7592 8.74737 26.2903C8.27853 25.8215 8.01514 25.1856 8.01514 24.5226V18.7501C8.01559 18.3117 8.13131 17.8811 8.35071 17.5015C8.57011 17.122 8.88546 16.8068 9.26514 16.5876L14.2651 13.7001C14.8393 13.3686 15.5217 13.2787 16.1621 13.4503C16.8026 13.6219 17.3486 14.0409 17.6801 14.6151V14.6126ZM42.3201 14.6126C42.6517 14.0384 43.1977 13.6194 43.8381 13.4478C44.4786 13.2762 45.1609 13.3661 45.7351 13.6976L50.7351 16.5851C51.1152 16.8045 51.4308 17.1201 51.6502 17.5001C51.8696 17.8801 51.9851 18.3112 51.9851 18.7501V24.5251C51.9851 25.1881 51.7217 25.824 51.2529 26.2928C50.7841 26.7617 50.1482 27.0251 49.4851 27.0251C48.8221 27.0251 48.1862 26.7617 47.7174 26.2928C47.2485 25.824 46.9851 25.1881 46.9851 24.5251V23.0801L44.2401 24.6651C43.6662 24.9914 42.9866 25.0774 42.3495 24.9044C41.7124 24.7315 41.1695 24.3135 40.8395 23.7418C40.5094 23.1701 40.4188 22.491 40.5875 21.8528C40.7563 21.2145 41.1706 20.6689 41.7401 20.3351L44.4851 18.7501L43.2351 18.0276C42.661 17.696 42.242 17.15 42.0704 16.5096C41.8988 15.8691 41.9886 15.1868 42.3201 14.6126ZM21.3401 25.0001C21.6717 24.4259 22.2177 24.0069 22.8581 23.8353C23.4986 23.6637 24.1809 23.7536 24.7551 24.0851L30.0001 27.1126L35.2451 24.0851C35.819 23.7588 36.4987 23.6727 37.1358 23.8457C37.7729 24.0187 38.3157 24.4366 38.6458 25.0083C38.9759 25.58 39.0665 26.2591 38.8977 26.8974C38.729 27.5356 38.3147 28.0812 37.7451 28.4151L32.5001 31.4426V37.5001C32.5001 38.1631 32.2367 38.799 31.7679 39.2678C31.2991 39.7367 30.6632 40.0001 30.0001 40.0001C29.3371 40.0001 28.7012 39.7367 28.2324 39.2678C27.7635 38.799 27.5001 38.1631 27.5001 37.5001V31.4426L22.2551 28.4151C21.681 28.0835 21.262 27.5375 21.0904 26.8971C20.9188 26.2566 21.0086 25.5743 21.3401 25.0001ZM10.5151 32.9751C11.1782 32.9751 11.8141 33.2384 12.2829 33.7073C12.7517 34.1761 13.0151 34.812 13.0151 35.4751V36.9201L15.7601 35.3351C16.334 35.0088 17.0137 34.9227 17.6508 35.0957C18.2879 35.2687 18.8307 35.6866 19.1608 36.2583C19.4909 36.83 19.5815 37.5091 19.4127 38.1474C19.244 38.7856 18.8297 39.3312 18.2601 39.6651L15.5151 41.2501L16.7651 41.9726C17.0518 42.1355 17.3033 42.3536 17.5053 42.6141C17.7073 42.8747 17.8558 43.1726 17.9422 43.4908C18.0285 43.809 18.0511 44.1411 18.0086 44.4681C17.9661 44.795 17.8594 45.1104 17.6945 45.3959C17.5297 45.6814 17.31 45.9315 17.0481 46.1318C16.7862 46.332 16.4873 46.4785 16.1685 46.5628C15.8498 46.6471 15.5175 46.6675 15.1908 46.6228C14.8642 46.5781 14.5496 46.4693 14.2651 46.3026L9.26514 43.4151C8.8851 43.1956 8.56951 42.8801 8.35009 42.5C8.13067 42.12 8.01515 41.6889 8.01514 41.2501V35.4751C8.01514 34.812 8.27853 34.1761 8.74737 33.7073C9.21621 33.2384 9.85209 32.9751 10.5151 32.9751ZM49.4851 32.9751C50.1482 32.9751 50.7841 33.2384 51.2529 33.7073C51.7217 34.1761 51.9851 34.812 51.9851 35.4751V41.2501C51.9851 41.6889 51.8696 42.12 51.6502 42.5C51.4308 42.8801 51.1152 43.1956 50.7351 43.4151L45.7351 46.3026C45.4507 46.4693 45.1361 46.5781 44.8094 46.6228C44.4828 46.6675 44.1505 46.6471 43.8318 46.5628C43.513 46.4785 43.2141 46.332 42.9522 46.1318C42.6903 45.9315 42.4706 45.6814 42.3057 45.3959C42.1409 45.1104 42.0341 44.795 41.9916 44.4681C41.9491 44.1411 41.9717 43.809 42.0581 43.4908C42.1445 43.1726 42.293 42.8747 42.495 42.6141C42.697 42.3536 42.9485 42.1355 43.2351 41.9726L44.4851 41.2501L41.7401 39.6651C41.4535 39.5021 41.202 39.2841 41 39.0235C40.798 38.7629 40.6495 38.465 40.5631 38.1468C40.4767 37.8286 40.4541 37.4965 40.4966 37.1695C40.5391 36.8426 40.6459 36.5273 40.8107 36.2417C40.9756 35.9562 41.1953 35.7061 41.4572 35.5058C41.7191 35.3056 42.018 35.1591 42.3368 35.0748C42.6555 34.9905 42.9878 34.9701 43.3144 35.0148C43.6411 35.0595 43.9557 35.1683 44.2401 35.3351L46.9851 36.9201V35.4776C46.9851 34.8145 47.2485 34.1786 47.7174 33.7098C48.1862 33.2409 48.8221 32.9776 49.4851 32.9776V32.9751ZM30.0001 42.5001C30.6632 42.5001 31.2991 42.7634 31.7679 43.2323C32.2367 43.7011 32.5001 44.337 32.5001 45.0001V48.1701L33.7501 47.4476C34.0346 47.2808 34.3492 47.172 34.6758 47.1273C35.0025 47.0827 35.3348 47.103 35.6535 47.1873C35.9722 47.2716 36.2712 47.4181 36.5331 47.6183C36.795 47.8186 37.0147 48.0687 37.1795 48.3542C37.3444 48.6398 37.4511 48.9551 37.4936 49.282C37.5361 49.609 37.5135 49.9411 37.4272 50.2593C37.3408 50.5775 37.1923 50.8754 36.9903 51.136C36.7883 51.3966 36.5367 51.6146 36.2501 51.7776L31.2501 54.6651C30.8701 54.8845 30.439 55 30.0001 55C29.5613 55 29.1302 54.8845 28.7501 54.6651L23.7501 51.7776C23.4635 51.6146 23.212 51.3966 23.01 51.136C22.808 50.8754 22.6595 50.5775 22.5731 50.2593C22.4867 49.9411 22.4641 49.609 22.5066 49.282C22.5491 48.9551 22.6559 48.6398 22.8207 48.3542C22.9856 48.0687 23.2053 47.8186 23.4672 47.6183C23.7291 47.4181 24.028 47.2716 24.3468 47.1873C24.6655 47.103 24.9978 47.0827 25.3244 47.1273C25.6511 47.172 25.9657 47.2808 26.2501 47.4476L27.5001 48.1701V45.0001C27.5001 44.337 27.7635 43.7011 28.2324 43.2323C28.7012 42.7634 29.3371 42.5001 30.0001 42.5001Z"/></clipPath><linearGradient id="paint0_diamond_11101_1825" x1="0" y1="0" x2="500" y2="500" gradientUnits="userSpaceOnUse">
<stop offset="0.58" stop-color="#F6F6F6"/>
<stop offset="1" stop-color="#409FD5"/>
</linearGradient>
</defs>
</svg>
