<svg width="37" height="37" viewBox="0 0 37 37" fill="none" xmlns="http://www.w3.org/2000/svg">
<path d="M18.5395 4.50146C17.8397 4.50146 17.1399 4.7674 16.566 5.32726L5.3688 16.5245C4.26307 17.6162 4.26307 19.3797 5.3688 20.4715L16.566 31.6687C17.6577 32.7744 19.4213 32.7744 20.513 31.6687L31.7102 20.4715C32.8159 19.3797 32.8159 17.6162 31.7102 16.5245L20.513 5.32726C19.9392 4.7674 19.2393 4.50146 18.5395 4.50146ZM18.5395 11.4297C22.3186 11.5837 23.9562 15.3907 21.7307 18.232C21.1429 18.9319 20.2051 19.3937 19.7292 19.9956C19.2393 20.5974 19.2393 21.2973 19.2393 21.9971H17.1399C17.1399 20.8074 17.1399 19.8136 17.6297 19.1138C18.0916 18.414 19.0294 17.9941 19.6172 17.5322C21.3388 15.9506 20.8909 13.7252 18.5395 13.5432C17.3918 13.5432 16.44 14.481 16.44 15.6567H14.3406C14.3406 13.3193 16.2301 11.4297 18.5395 11.4297ZM17.1399 23.3967H19.2393V25.4962H17.1399V23.3967Z" fill="white"/>
</svg>
