<svg width="14" height="15" viewBox="0 0 14 15" fill="none" xmlns="http://www.w3.org/2000/svg">
<path d="M0.765184 7.86674C0.765184 8.2944 0.725481 8.43363 0.623434 8.53612C0.510122 8.62471 0.362793 8.67338 0.209778 8.67338L0.24959 8.91773C0.486278 8.92024 0.716075 8.84805 0.895559 8.71473C0.992137 8.61301 1.06389 8.49598 1.10665 8.36998C1.14912 8.24522 1.16212 8.11232 1.14461 7.98169V6.36349H0.765184V7.86674ZM3.59614 7.67402C3.59614 7.85733 3.59614 8.02096 3.61287 8.16282H3.27578L3.25314 7.87188C3.18259 7.97469 3.08175 8.05979 2.96089 8.11798C2.83736 8.17708 2.70176 8.20658 2.56484 8.20416C2.23628 8.20416 1.84526 8.05038 1.84526 7.42235V6.37858H2.22512V7.35618C2.22512 7.69579 2.34686 7.92307 2.68953 7.92307C2.75962 7.92392 2.82932 7.91252 2.89548 7.88938C2.95927 7.86712 3.01838 7.83322 3.06982 7.78941C3.11844 7.74788 3.15786 7.69666 3.18554 7.63902C3.21222 7.58361 3.2257 7.52278 3.22492 7.46129V6.36623H3.60423V7.66418L3.59614 7.67402ZM4.31572 6.96013C4.31572 6.73274 4.31572 6.54691 4.29854 6.37858H4.6387L4.65532 6.68407C4.73134 6.57338 4.84028 6.48282 4.97109 6.42179C5.10448 6.36013 5.25059 6.33096 5.39743 6.33669C5.90198 6.33669 6.2814 6.70113 6.2814 7.24341C6.2814 7.8838 5.82553 8.20165 5.33247 8.20165C5.20742 8.20673 5.08285 8.18351 4.96803 8.13373C4.8557 8.08451 4.75956 8.01112 4.68945 7.92044V8.89804H4.31572V6.96013ZM4.68945 7.43646C4.69033 7.48087 4.69634 7.52527 4.70662 7.56848C4.73867 7.67698 4.81162 7.77312 4.91422 7.84191C5.01681 7.91071 5.14325 7.94746 5.27308 7.94746C5.67262 7.94746 5.90756 7.66637 5.90756 7.2584C5.90756 6.90151 5.68662 6.59602 5.28718 6.59602C5.12914 6.60718 4.98126 6.66744 4.87112 6.7661C4.76131 6.86476 4.69634 6.99426 4.68956 7.13098L4.68945 7.43646ZM6.95778 6.37683L7.41409 7.43012C7.46255 7.54988 7.50684 7.67128 7.54687 7.79412C7.58668 7.68682 7.6289 7.54966 7.68031 7.42279L8.09375 6.37683H8.49329L7.92673 7.64755C7.64345 8.25852 7.47042 8.57374 7.20978 8.76427C7.07864 8.86818 6.9184 8.94037 6.74537 8.97449L6.65186 8.70105C6.77069 8.66757 6.88284 8.6138 6.98337 8.54213C7.1214 8.44479 7.23122 8.32087 7.3034 8.18032C7.31876 8.15652 7.32935 8.12996 7.33458 8.10212C7.3312 8.07234 7.32253 8.04342 7.30898 8.01669L6.53865 6.37169H6.95209L6.95778 6.37683ZM9.50075 5.86419V6.37727H10.0446V6.62173H9.50075V7.58466C9.50075 7.80473 9.57458 7.9316 9.78403 7.9316C9.85824 7.93255 9.93232 7.9251 10.0049 7.9094L10.0219 8.15418C9.91255 8.18638 9.79879 8.20111 9.68482 8.19782C9.60944 8.20203 9.53393 8.19201 9.46225 8.16829C9.39294 8.14572 9.32896 8.10924 9.27423 8.0611C9.15895 7.92777 9.10634 7.76207 9.1269 7.59669V6.6191H8.80392V6.37476H9.13237V5.93977L9.50075 5.86419ZM10.744 7.32708C10.7364 7.40999 10.7495 7.49334 10.7828 7.57099C10.8175 7.65112 10.8702 7.72219 10.9367 7.77869C11.0073 7.83874 11.0892 7.88394 11.1777 7.91159C11.2678 7.94057 11.3647 7.95173 11.4605 7.94527C11.6535 7.94947 11.8456 7.91792 12.0271 7.85219L12.0924 8.09654C11.8697 8.17506 11.6346 8.21242 11.3985 8.20679C11.2596 8.21488 11.1208 8.19694 10.991 8.15462C10.8642 8.11357 10.7469 8.04748 10.6461 7.96026C10.5488 7.87483 10.4735 7.77224 10.4265 7.65948C10.3797 7.54838 10.3612 7.4274 10.3727 7.3074C10.3727 6.76949 10.744 6.34446 11.3503 6.34446C12.03 6.34446 12.2001 6.85754 12.2001 7.18523C12.2034 7.23561 12.2034 7.28603 12.2001 7.33649H10.7354L10.744 7.32708ZM11.8544 7.08274C11.8653 7.01718 11.8599 6.94994 11.8386 6.88696C11.816 6.82216 11.7789 6.76342 11.73 6.71524C11.6785 6.6638 11.6168 6.62365 11.5489 6.59733C11.4785 6.56931 11.4034 6.55483 11.3276 6.55468C11.1721 6.56452 11.026 6.6238 10.9187 6.72169C10.8111 6.81904 10.7499 6.94766 10.747 7.08263L11.8544 7.08274ZM12.7759 6.93235C12.7759 6.72257 12.7759 6.54134 12.7589 6.37519H13.0991V6.72465H13.116C13.1516 6.61702 13.2254 6.52121 13.3267 6.45121C13.4284 6.38121 13.5528 6.34019 13.6826 6.33374C13.718 6.32991 13.7543 6.32991 13.7902 6.33374V6.63923C13.7469 6.63491 13.7033 6.63491 13.66 6.63923C13.5313 6.64349 13.4087 6.6879 13.3156 6.76435C13.222 6.84091 13.1644 6.94427 13.1528 7.05452C13.1422 7.10483 13.1365 7.15537 13.1357 7.20612V8.1568H12.7619V6.93487L12.7759 6.93235Z" fill="#4E4E4E"/>
<path d="M12.0437 1.29648C12.0506 1.46088 12.0091 1.6237 11.9245 1.76482C11.84 1.90514 11.7158 2.01736 11.5677 2.08737C11.4198 2.15674 11.2545 2.18036 11.093 2.15518C10.9313 2.12994 10.7808 2.0571 10.6607 1.94594C10.54 1.8341 10.4551 1.68914 10.4165 1.52922C10.3779 1.36931 10.3873 1.20155 10.4437 1.04699C10.4993 0.892708 10.5994 0.758335 10.7312 0.660788C10.8627 0.563631 11.0202 0.507985 11.1836 0.500991C11.292 0.496364 11.4002 0.513276 11.502 0.550749C11.6038 0.588223 11.6971 0.645513 11.7766 0.719303C11.9381 0.868866 12.0339 1.07615 12.0433 1.29604L12.0437 1.29648Z" fill="#767677"/>
<path d="M7.23034 11.0865C5.03212 11.0865 3.11248 10.2811 2.11531 9.08857C2.48507 10.1563 3.1768 11.0831 4.09522 11.7414C5.00979 12.3966 6.10657 12.7491 7.23165 12.7492C8.35666 12.7488 9.45334 12.3964 10.368 11.7414C11.2863 11.0832 11.9778 10.1564 12.347 9.08857C11.3481 10.2811 9.42845 11.0865 7.23034 11.0865ZM7.22947 3.33107C9.42768 3.33107 11.3477 4.13683 12.3445 5.3288C11.9747 4.26111 11.283 3.33434 10.3646 2.67613C9.45014 2.0209 8.35356 1.66827 7.22859 1.66769C6.10362 1.66827 5.00704 2.0209 4.09259 2.67613C3.17402 3.33411 2.4823 4.26097 2.1129 5.3288C3.11172 4.13902 5.03125 3.33107 7.22947 3.33107Z" fill="#F37726"/>
<path d="M4.21225 13.4046C4.22127 13.6119 4.16912 13.8173 4.06229 13.9951C3.95615 14.1721 3.7997 14.3135 3.61289 14.4012C3.42608 14.489 3.21738 14.5191 3.01339 14.4878C2.80939 14.4563 2.6196 14.3641 2.4687 14.2233C2.31714 14.0822 2.21032 13.8998 2.16147 13.6986C2.11323 13.4967 2.12513 13.285 2.1957 13.0897C2.26634 12.895 2.39299 12.7256 2.5597 12.6027C2.75375 12.4601 2.99143 12.3896 3.23184 12.4033C3.47225 12.4171 3.70036 12.5142 3.8769 12.6779C4.08005 12.8667 4.20055 13.128 4.21225 13.4051V13.4046Z" fill="#9E9E9E"/>
<path d="M2.36611 3.06146C2.24528 3.06672 2.12565 3.03563 2.02267 2.97221C1.91902 2.90863 1.83652 2.81578 1.78556 2.70538C1.7346 2.59498 1.71747 2.47196 1.73632 2.35183C1.7544 2.23137 1.80798 2.11904 1.89022 2.02918C1.97169 1.93971 2.07783 1.87638 2.19526 1.84718C2.31263 1.81786 2.43613 1.82488 2.54942 1.8673C2.66311 1.9092 2.76163 1.98421 2.83226 2.08266C2.91566 2.19787 2.95685 2.33828 2.94891 2.48028C2.94096 2.62228 2.88436 2.75722 2.78862 2.8624C2.73474 2.92184 2.66963 2.97003 2.59704 3.00419C2.52445 3.03836 2.44581 3.05782 2.36567 3.06146H2.36611Z" fill="#616262"/>
</svg>
