<svg width="12" height="13" viewBox="0 0 12 13" fill="none" xmlns="http://www.w3.org/2000/svg">
<path fill-rule="evenodd" clip-rule="evenodd" d="M1.2 1.7V11.3H10.8V7.33771H12V11.3C12 11.6164 11.8919 11.9266 11.6593 12.1593C11.4266 12.3919 11.1163 12.5 10.8 12.5H1.2C0.883651 12.5 0.573403 12.3919 0.340736 12.1593C0.108068 11.9266 0 11.6164 0 11.3V1.7C0 1.38365 0.108068 1.0734 0.340736 0.840736C0.573403 0.608068 0.883651 0.5 1.2 0.5H5.11629V1.7H1.2ZM7.51629 0.5L12 0.500009V4.93772H10.8V2.54853L6 7.34853L5.15147 6.5L9.95147 1.7H7.51629V0.5Z" fill="black" fill-opacity="0.55"/>
</svg>
