<svg width="22" height="23" viewBox="0 0 22 23" fill="none" xmlns="http://www.w3.org/2000/svg">
<path d="M16.7959 3.65765L14.9194 5.53412C17.1582 6.89294 18.6594 9.33882 18.6594 12.1471C18.6594 14.2064 17.8413 16.1814 16.3852 17.6375C14.929 19.0937 12.954 19.9118 10.8947 19.9118C8.83536 19.9118 6.86038 19.0937 5.40421 17.6375C3.94805 16.1814 3.12998 14.2064 3.12998 12.1471C3.12998 9.33882 4.63116 6.89294 6.85704 5.52118L4.99351 3.65765C2.30175 5.52118 0.541748 8.62706 0.541748 12.1471C0.541748 14.8928 1.6325 17.5261 3.57405 19.4677C5.51561 21.4092 8.14892 22.5 10.8947 22.5C13.6405 22.5 16.2738 21.4092 18.2153 19.4677C20.1569 17.5261 21.2476 14.8928 21.2476 12.1471C21.2476 8.62706 19.4876 5.52118 16.7959 3.65765ZM12.1888 0.5H9.60057V13.4412H12.1888" fill="white"/>
</svg>
