<svg width="12" height="13" viewBox="0 0 12 13" fill="none" xmlns="http://www.w3.org/2000/svg">
<path d="M12 6.5C12 9.8138 9.3138 12.5 6 12.5C2.6862 12.5 0 9.8138 0 6.5C0 3.1862 2.6862 0.5 6 0.5V1.7C4.85072 1.70013 3.73963 2.11262 2.86869 2.86249C1.99775 3.61236 1.42477 4.64984 1.2539 5.78635C1.08302 6.92285 1.3256 8.08295 1.93754 9.05577C2.54947 10.0286 3.49015 10.7496 4.58858 11.0876C5.68701 11.4257 6.87028 11.3584 7.92333 10.8981C8.97637 10.4377 9.82928 9.61475 10.327 8.57885C10.8248 7.54295 10.9343 6.36284 10.6357 5.25302C10.3372 4.1432 9.65031 3.17734 8.7 2.531V4.1H7.5V0.5H11.1V1.7H9.6C10.3455 2.25856 10.9506 2.9832 11.3672 3.8164C11.7838 4.64961 12.0005 5.56845 12 6.5Z" fill="white" fill-opacity="0.55"/>
</svg>
