<svg width="12" height="13" viewBox="0 0 12 13" fill="none" xmlns="http://www.w3.org/2000/svg">
<path d="M6.00074 2.02754V0.834324C6.00074 0.534353 5.64078 0.3877 5.43413 0.601013L3.56764 2.46083C3.43432 2.59415 3.43432 2.8008 3.56764 2.93412L5.42746 4.79394C5.64078 5.00059 6.00074 4.85394 6.00074 4.55396V3.36075C8.20719 3.36075 10.0004 5.15391 10.0004 7.36036C10.0004 9.17352 8.78047 10.7067 7.1273 11.1933C6.84732 11.2733 6.66734 11.54 6.66734 11.8266C6.66734 12.2599 7.08064 12.5999 7.5006 12.4732C8.60653 12.1502 9.5779 11.4773 10.269 10.5554C10.9601 9.63359 11.3336 8.5125 11.3336 7.36036C11.3336 4.41398 8.94712 2.02754 6.00074 2.02754ZM2.00113 7.36036C2.00113 6.46711 2.29443 5.64053 2.79438 4.96726C2.99436 4.70062 2.9677 4.33399 2.73439 4.09401C2.45442 3.81404 1.97446 3.8407 1.73449 4.16067C1.21702 4.84933 0.874315 5.65322 0.735747 6.50341C0.597178 7.35359 0.666887 8.2247 0.938893 9.04203C1.2109 9.85936 1.67709 10.5985 2.29748 11.1961C2.91787 11.7937 3.67395 12.232 4.50089 12.4732C4.92085 12.5999 5.33414 12.2599 5.33414 11.8266C5.33414 11.54 5.15416 11.2733 4.87418 11.1933C3.22101 10.7067 2.00113 9.17352 2.00113 7.36036Z" fill="white" fill-opacity="0.55"/>
</svg>
