<svg width="21" height="21" viewBox="0 0 21 21" fill="none" xmlns="http://www.w3.org/2000/svg">
<path fill-rule="evenodd" clip-rule="evenodd" d="M12.328 4.20539C12.8638 4.33934 13.1895 4.88227 13.0556 5.41807L10.5556 15.4181C10.4216 15.9539 9.87871 16.2796 9.34291 16.1457C8.80712 16.0117 8.48136 15.4688 8.61531 14.933L11.1153 4.93299C11.2493 4.3972 11.7922 4.07144 12.328 4.20539ZM7.37589 6.13509C7.76641 6.52561 7.76641 7.15878 7.37589 7.5493L4.74966 10.1755L7.37589 12.8018C7.76641 13.1923 7.76641 13.8254 7.37589 14.216C6.98536 14.6065 6.3522 14.6065 5.96168 14.216L2.62834 10.8826C2.23782 10.4921 2.23782 9.85895 2.62834 9.46842L5.96168 6.13509C6.3522 5.74456 6.98536 5.74456 7.37589 6.13509ZM14.295 6.13509C14.6855 5.74456 15.3187 5.74456 15.7092 6.13509L19.0426 9.46842C19.2301 9.65596 19.3355 9.91031 19.3355 10.1755C19.3355 10.4407 19.2301 10.6951 19.0426 10.8826L15.7092 14.216C15.3187 14.6065 14.6855 14.6065 14.295 14.216C13.9045 13.8254 13.9045 13.1923 14.295 12.8018L16.9212 10.1755L14.295 7.5493C13.9045 7.15878 13.9045 6.52561 14.295 6.13509Z" fill="#0079A7"/>
</svg>
